<svg width="20" height="18" viewBox="0 0 20 18" fill="none" xmlns="http://www.w3.org/2000/svg">
<rect width="20" height="18" fill="#15202B"/>
<path d="M7.5 1C6.56563 1 5.79062 1.64062 5.56875 2.50625C5.54375 2.50625 5.525 2.5 5.5 2.5C4.39688 2.5 3.5 3.39688 3.5 4.5C3.5 4.65 3.51875 4.79688 3.55312 4.9375C2.64062 5.3125 2 6.20625 2 7.25C2 7.64375 2.1 8.00937 2.25937 8.34062C1.50937 8.77187 1 9.57187 1 10.5C1 11.5406 1.6375 12.4344 2.54375 12.8094C2.51563 12.9531 2.5 13.1 2.5 13.25C2.5 14.4937 3.50625 15.5 4.75 15.5C4.87812 15.5 5.00312 15.4844 5.125 15.4625C5.425 16.3531 6.25625 17 7.25 17C8.49375 17 9.5 15.9937 9.5 14.75V3C9.5 1.89688 8.60312 1 7.5 1ZM19 10.5C19 9.57187 18.4906 8.77187 17.7406 8.34062C17.9031 8.00937 18 7.64375 18 7.25C18 6.20625 17.3594 5.3125 16.4469 4.9375C16.4781 4.79688 16.5 4.65 16.5 4.5C16.5 3.39688 15.6031 2.5 14.5 2.5C14.475 2.5 14.4531 2.50625 14.4312 2.50625C14.2094 1.64062 13.4344 1 12.5 1C11.3969 1 10.5 1.89375 10.5 3V14.75C10.5 15.9937 11.5063 17 12.75 17C13.7437 17 14.575 16.3531 14.875 15.4625C14.9969 15.4844 15.1219 15.5 15.25 15.5C16.4937 15.5 17.5 14.4937 17.5 13.25C17.5 13.1 17.4844 12.9531 17.4562 12.8094C18.3625 12.4344 19 11.5406 19 10.5Z" fill="#17BF63"/>
</svg>
